<svg width="77" height="55" viewBox="0 0 77 55" fill="none" xmlns="http://www.w3.org/2000/svg">
<path d="M55.1026 53.6324C55.4519 54.6803 56.5846 55.2466 57.6325 54.8973L74.7087 49.2052C75.7566 48.8559 76.323 47.7233 75.9737 46.6754C75.6244 45.6275 74.4917 45.0612 73.4438 45.4105L58.2649 50.4701L53.2052 35.2912C52.8559 34.2433 51.7233 33.677 50.6754 34.0263C49.6275 34.3756 49.0612 35.5083 49.4105 36.5561L55.1026 53.6324ZM1.11865 9.20466C0.127116 9.69142 -0.282089 10.8898 0.204666 11.8813C0.691421 12.8729 1.88981 13.2821 2.88135 12.7953L1.11865 9.20466ZM58.7889 53.8944C66.0112 39.4496 66.2111 21.2811 56.913 10.0964C47.3946 -1.35323 28.9287 -4.44757 1.11865 9.20466L2.88135 12.7953C30.0713 -0.552494 46.1054 3.35308 53.837 12.6535C61.7889 22.2187 61.9888 38.5502 55.2111 52.1055L58.7889 53.8944Z" fill="#9C895D"/>
</svg>
