{
    "asset" : {
        "generator" : "Khronos glTF Blender I/O v1.6.16",
        "version" : "2.0"
    },
    "scene" : 0,
    "scenes" : [
        {
            "name" : "Scene",
            "nodes" : [
                0
            ]
        }
    ],
    "nodes" : [
        {
            "mesh" : 0,
            "name" : "06_person__0",
            "rotation" : [
                0.5,
                0.5,
                0.5,
                -0.5
            ],
            "scale" : [
                5,
                5,
                5
            ]
        }
    ],
    "materials" : [
        {
            "doubleSided" : true,
            "name" : "273_person__0",
            "pbrMetallicRoughness" : {
                "metallicFactor" : 0
            }
        }
    ],
    "meshes" : [
        {
            "name" : "06_person__0",
            "primitives" : [
                {
                    "attributes" : {
                        "POSITION" : 0,
                        "NORMAL" : 1,
                        "TEXCOORD_0" : 2
                    },
                    "indices" : 3,
                    "material" : 0
                }
            ]
        }
    ],
    "accessors" : [
        {
            "bufferView" : 0,
            "componentType" : 5126,
            "count" : 1500,
            "max" : [
                0.10236270725727081,
                0.20129506289958954,
                1.0099300146102905
            ],
            "min" : [
                -0.09111848473548889,
                -0.22278167307376862,
                0.0027275702450424433
            ],
            "type" : "VEC3"
        },
        {
            "bufferView" : 1,
            "componentType" : 5126,
            "count" : 1500,
            "type" : "VEC3"
        },
        {
            "bufferView" : 2,
            "componentType" : 5126,
            "count" : 1500,
            "type" : "VEC2"
        },
        {
            "bufferView" : 3,
            "componentType" : 5123,
            "count" : 1500,
            "type" : "SCALAR"
        }
    ],
    "bufferViews" : [
        {
            "buffer" : 0,
            "byteLength" : 18000,
            "byteOffset" : 0
        },
        {
            "buffer" : 0,
            "byteLength" : 18000,
            "byteOffset" : 18000
        },
        {
            "buffer" : 0,
            "byteLength" : 12000,
            "byteOffset" : 36000
        },
        {
            "buffer" : 0,
            "byteLength" : 3000,
            "byteOffset" : 48000
        }
    ],
    "buffers" : [
        {
            "byteLength" : 51000,
            "uri" : "data:application/octet-stream;base64,"
        }
    ]
}
